<?xml version="1.0" encoding="utf-8"?>
<!-- Generator: Adobe Illustrator 16.0.0, SVG Export Plug-In . SVG Version: 6.00 Build 0)  -->
<!DOCTYPE svg PUBLIC "-//W3C//DTD SVG 1.1//EN" "http://www.w3.org/Graphics/SVG/1.1/DTD/svg11.dtd">
<svg version="1.1" id="Layer_1" xmlns="http://www.w3.org/2000/svg" xmlns:xlink="http://www.w3.org/1999/xlink" x="0px" y="0px"
	 width="100px" height="100px" viewBox="0 0 100 100" enable-background="new 0 0 100 100" xml:space="preserve">
<path fill="#FFFFFF" d="M56.588,80.705V19.297c4.79,0,8.676-3.885,8.676-8.676c0-4.79-3.886-8.675-8.676-8.675
	c-2.639,0-4.995,1.182-6.588,3.041c-1.59-1.859-3.949-3.041-6.588-3.041c-4.792,0-8.675,3.885-8.675,8.675
	c0,4.791,3.883,8.676,8.675,8.676v61.408c-4.792,0-8.675,3.885-8.675,8.674c0,4.792,3.883,8.676,8.675,8.676
	c2.639,0,4.996-1.181,6.588-3.039c1.59,1.858,3.949,3.039,6.588,3.039c4.79,0,8.676-3.884,8.676-8.676S61.378,80.705,56.588,80.705z
	"/>
</svg>
