<?xml version="1.0" encoding="utf-8"?>
<!-- Generator: Adobe Illustrator 16.0.0, SVG Export Plug-In . SVG Version: 6.00 Build 0)  -->
<!DOCTYPE svg PUBLIC "-//W3C//DTD SVG 1.1//EN" "http://www.w3.org/Graphics/SVG/1.1/DTD/svg11.dtd">
<svg version="1.1" id="Layer_1" xmlns="http://www.w3.org/2000/svg" xmlns:xlink="http://www.w3.org/1999/xlink" x="0px" y="0px"
	 width="100px" height="100px" viewBox="0 0 100 100" enable-background="new 0 0 100 100" xml:space="preserve">
<path fill="#FFFFFF" d="M61.658,86.166c2.844,0.877,4.908,3.523,4.908,6.654c0,3.842-3.114,6.957-6.959,6.957
	c-3.842,0-6.957-3.115-6.957-6.957c0-2.609,1.436-4.883,3.561-6.075l0.002-0.002c-0.382-5.431-1.973-7.751-3.918-10.593
	c-2.688-3.922-5.718-8.344-6.01-20.389h-0.001C32.825,53.095,28.533,42.679,25.486,33.95c-0.174-0.498,0.575-0.991,0.425-1.477
	c-1.35-4.348-2.693-10.851-2.693-12.771c0-8.573,8.115-12.408,8.115-12.408c-0.084-0.404-0.129-0.821-0.129-1.25
	C31.204,2.707,33.911,0,37.25,0c3.338,0,6.046,2.707,6.046,6.046s-2.708,6.047-6.046,6.047c-1.552,0-2.968-0.585-4.038-1.547
	c-6.499,4.137-7.009,8.163-5.963,12.551c0.169,0.709,1.735,6.829,2.172,8.336c0.12,0.413,1.157,0.835,1.286,1.258
	c0.567,1.877,1.193,3.749,1.627,4.693C38.271,50.292,49,50.58,49,50.58s10.729-0.288,16.667-13.197
	c0.435-0.944,1.06-2.816,1.627-4.693c0.129-0.422,1.166-0.845,1.285-1.258c0.437-1.507,2.004-7.626,2.173-8.336
	c1.046-4.388,0.535-8.414-5.964-12.551c-1.067,0.961-2.486,1.547-4.037,1.547c-3.34,0-6.047-2.708-6.047-6.047S57.41,0,60.75,0
	c3.338,0,6.045,2.707,6.045,6.046c0,0.429-0.043,0.846-0.129,1.25c0,0,8.115,3.834,8.115,12.408c0,1.92-1.344,8.423-2.693,12.771
	c-0.15,0.486,0.6,0.979,0.426,1.477c-3.041,8.708-7.32,19.103-20.712,21.795l-0.04,0.008c0.268,10.32,2.697,13.867,5.051,17.304
	C58.939,76.163,61.131,79.359,61.658,86.166z"/>
</svg>
