<?xml version="1.0" encoding="utf-8"?>
<!-- Generator: Adobe Illustrator 16.0.0, SVG Export Plug-In . SVG Version: 6.00 Build 0)  -->
<!DOCTYPE svg PUBLIC "-//W3C//DTD SVG 1.1//EN" "http://www.w3.org/Graphics/SVG/1.1/DTD/svg11.dtd">
<svg version="1.1" id="Layer_1" xmlns="http://www.w3.org/2000/svg" xmlns:xlink="http://www.w3.org/1999/xlink" x="0px" y="0px"
	 width="48px" height="100px" viewBox="0 0 48 100" enable-background="new 0 0 48 100" xml:space="preserve">
<path fill="#FFFFFF" d="M35.838,27.603c1.404-1.019,2.714-2.133,3.902-3.329c4.738-4.771,7.246-10.467,7.246-16.471V4.271
	C46.986,1.912,45.075,0,42.716,0c-2.356,0-4.271,1.912-4.271,4.271v0.854H8.553V4.271C8.553,1.912,6.641,0,4.283,0
	C1.924,0,0.012,1.912,0.012,4.271v3.532c0,6.004,2.505,11.7,7.246,16.471c3.991,4.017,9.347,7.12,15.082,8.738
	c4.279,1.208,8.414,3.59,11.342,6.538c1.741,1.753,3.752,4.407,4.48,7.799H8.837c0.357-1.66,1.021-3.143,1.808-4.431h23.13
	c-0.526-0.708-1.082-1.334-1.608-1.864c-1.289-1.297-2.837-2.476-4.536-3.474H15.56c1.455-1.123,3.082-2.118,4.802-2.94
	c-3.263-1.061-6.385-2.572-9.2-4.44c-1.404,1.019-2.714,2.133-3.902,3.329C2.517,38.3,0.012,43.996,0.012,50
	c0,6.005,2.505,11.701,7.246,16.473c3.991,4.017,9.347,7.119,15.082,8.737c4.279,1.206,8.414,3.59,11.342,6.537
	c1.74,1.752,3.748,4.403,4.479,7.791H8.839c0.358-1.66,1.022-3.144,1.812-4.431H33.77c-0.523-0.707-1.078-1.327-1.604-1.855
	c-1.292-1.302-2.846-2.482-4.551-3.482H15.57c1.451-1.119,3.075-2.109,4.79-2.931c-3.263-1.062-6.385-2.573-9.2-4.44
	c-1.404,1.02-2.714,2.134-3.902,3.33c-4.741,4.771-7.246,10.465-7.246,16.47v3.532c0,2.358,1.912,4.27,4.271,4.27
	c2.357,0,4.27-1.911,4.27-4.27v-0.855h29.894v0.855c0,2.357,1.912,4.27,4.271,4.27c2.359,0,4.271-1.911,4.271-4.27v-3.532
	c0-6.005-2.506-11.699-7.245-16.472c-3.991-4.017-9.349-7.119-15.081-8.737c-4.28-1.207-8.414-3.591-11.342-6.537
	c-1.742-1.753-3.751-4.408-4.48-7.8h29.323c-0.356,1.66-1.021,3.144-1.81,4.431H13.224c0.526,0.708,1.081,1.334,1.608,1.864
	c1.289,1.298,2.838,2.477,4.536,3.474h12.069c-1.455,1.122-3.082,2.117-4.801,2.938c3.264,1.062,6.385,2.574,9.199,4.44
	c1.404-1.019,2.713-2.133,3.902-3.327c4.738-4.771,7.246-10.469,7.246-16.474c0-6.004-2.508-11.7-7.246-16.472
	c-3.991-4.016-9.348-7.12-15.081-8.737c-4.28-1.207-8.414-3.59-11.342-6.537c-1.741-1.752-3.748-4.404-4.479-7.791h29.321
	c-0.357,1.66-1.021,3.143-1.812,4.43H13.225c0.525,0.706,1.078,1.327,1.604,1.856c1.293,1.301,2.847,2.483,4.551,3.482h12.046
	c-1.453,1.119-3.076,2.111-4.791,2.931C29.9,24.223,33.021,25.735,35.838,27.603z"/>
</svg>
