<?xml version="1.0" encoding="utf-8"?>
<!-- Generator: Adobe Illustrator 16.0.0, SVG Export Plug-In . SVG Version: 6.00 Build 0)  -->
<!DOCTYPE svg PUBLIC "-//W3C//DTD SVG 1.1//EN" "http://www.w3.org/Graphics/SVG/1.1/DTD/svg11.dtd">
<svg version="1.1" id="Layer_1" xmlns="http://www.w3.org/2000/svg" xmlns:xlink="http://www.w3.org/1999/xlink" x="0px" y="0px"
	 width="100px" height="100px" viewBox="0 0 100 100" enable-background="new 0 0 100 100" xml:space="preserve">
<path fill="#FFFFFF" d="M26.957,33.431V13.41c0-2.849,1.982-5.065,4.501-5.065h37.111c2.512,0,4.508,2.215,4.508,5.065v20.02
	c0,2.843-1.995,5.059-4.508,5.059H31.457C28.938,38.489,26.957,36.273,26.957,33.431z M67.331,14.094h-34.63v18.655h34.63V14.094z"
	/>
<path fill="#FFFFFF" d="M64.073,90.973V76.54c0-1.329-1.09-2.413-2.428-2.413H38.374c-1.333,0-2.416,1.084-2.416,2.413v14.433"/>
<path fill="#FFFFFF" d="M47.092,68.909c0,1.107,0.887,2.005,2.001,2.005h1.846c1.108,0,2.001-0.897,2.001-2.005V44.21
	c0-1.088-0.893-1.996-2.001-1.996h-1.846c-1.114,0-2.001,0.909-2.001,1.996V68.909z"/>
<path d="M1.211,90.973"/>
<path fill="#FFFFFF" d="M12.92,42.808c0.369-0.375,0.875-0.594,1.426-0.594h1.839h22.855c1.107,0,1.995,0.897,1.995,1.996v1.856
	c0,1.102-0.888,2.01-1.995,2.01H18.186v20.833c0,1.107-0.893,2.005-2,2.005h-1.839c-1.107,0-2.008-0.897-2.008-2.005V46.066V44.21
	C12.338,43.656,12.565,43.158,12.92,42.808z"/>
<path fill="#FFFFFF" d="M70.706,90.973V76.54c0-1.329,1.081-2.413,2.422-2.413h23.283c1.333,0,2.409,1.084,2.409,2.413v14.433"/>
<path fill="#FFFFFF" d="M29.274,90.973V76.54c0-1.329-1.076-2.413-2.416-2.413H3.575c-1.333,0-2.409,1.084-2.409,2.413v14.433"/>
<path fill="#FFFFFF" d="M87.109,42.808c-0.367-0.375-0.866-0.594-1.424-0.594h-1.845h-22.85c-1.107,0-2.001,0.897-2.001,1.996v1.856
	c0,1.102,0.894,2.01,2.001,2.01h20.841v20.833c0,1.107,0.907,2.005,2.009,2.005h1.847c1.1,0,2.007-0.897,2.007-2.005V46.066V44.21
	C87.694,43.656,87.468,43.158,87.109,42.808z"/>
<text transform="matrix(1 0 0 1 82.8857 73.875)" font-family="'ArialMT'" font-size="56.3725"> </text>
</svg>
